<?xml version="1.0" standalone="no"?>
<!DOCTYPE svg PUBLIC "-//W3C//DTD SVG 20010904//EN"
 "http://www.w3.org/TR/2001/REC-SVG-20010904/DTD/svg10.dtd">
<svg version="1.0" xmlns="http://www.w3.org/2000/svg"
 width="736.000000pt" height="736.000000pt" viewBox="0 0 736.000000 736.000000"
 preserveAspectRatio="xMidYMid meet">
<metadata>
Created by potrace 1.14, written by Peter Selinger 2001-2017
</metadata>
<g transform="translate(0.000000,736.000000) scale(0.100000,-0.100000)"
fill="#000000" stroke="none">
<path d="M5075 6158 c-121 -25 -470 -96 -2094 -424 -151 -31 -284 -60 -296
-64 -38 -14 -87 -63 -106 -105 -18 -38 -19 -103 -19 -1410 0 -903 -4 -1392
-11 -1435 -20 -129 -78 -212 -179 -259 -51 -23 -70 -25 -255 -32 -110 -3 -218
-12 -240 -19 -139 -43 -274 -159 -339 -290 -49 -100 -70 -203 -61 -300 22
-247 180 -428 440 -507 85 -25 352 -26 445 0 245 66 421 243 493 494 l22 78 5
1347 5 1348 26 26 c16 15 45 30 70 35 24 4 98 20 164 34 66 14 320 68 565 120
245 51 640 135 879 186 311 66 439 89 450 82 41 -25 41 -25 41 -910 0 -552 -4
-879 -11 -929 -19 -140 -78 -228 -184 -275 -44 -20 -73 -24 -255 -30 -160 -5
-216 -10 -255 -24 -379 -138 -507 -613 -244 -908 148 -166 419 -242 689 -193
285 52 473 229 551 521 l22 80 4 1835 c4 1505 2 1842 -9 1875 -18 53 -66 85
-127 84 -25 -1 -109 -14 -186 -31z"/>
</g>
</svg>
